<mxfile host="app.diagrams.net" agent="Mozilla/5.0 (Windows NT 10.0; Win64; x64) AppleWebKit/537.36 (KHTML, like Gecko) Chrome/138.0.0.0 Safari/537.36" version="28.0.6">
  <diagram name="Página-1" id="6LKFg9hf2HAT_kh80acu">
    <mxGraphModel dx="872" dy="534" grid="1" gridSize="10" guides="1" tooltips="1" connect="1" arrows="1" fold="1" page="1" pageScale="1" pageWidth="827" pageHeight="1169" math="0" shadow="0">
      <root>
        <mxCell id="0" />
        <mxCell id="1" parent="0" />
        <mxCell id="vvGAsTG8AbVY1-xq1H39-13" style="edgeStyle=orthogonalEdgeStyle;rounded=0;orthogonalLoop=1;jettySize=auto;html=1;entryX=1;entryY=0.5;entryDx=0;entryDy=0;" edge="1" parent="1" source="vvGAsTG8AbVY1-xq1H39-7" target="vvGAsTG8AbVY1-xq1H39-12">
          <mxGeometry relative="1" as="geometry" />
        </mxCell>
        <mxCell id="vvGAsTG8AbVY1-xq1H39-7" value="&lt;font style=&quot;vertical-align: inherit;&quot;&gt;&lt;font style=&quot;vertical-align: inherit;&quot;&gt;&lt;font style=&quot;vertical-align: inherit;&quot;&gt;&lt;font style=&quot;vertical-align: inherit; color: rgb(51, 51, 255);&quot;&gt;Tela/voz&lt;/font&gt;&lt;/font&gt;&lt;/font&gt;&lt;/font&gt;" style="outlineConnect=0;dashed=0;verticalLabelPosition=bottom;verticalAlign=top;align=center;html=1;shape=mxgraph.aws3.alexa_voice_service;fillColor=#5294CF;gradientColor=none;" vertex="1" parent="1">
          <mxGeometry x="440" y="200" width="80" height="80" as="geometry" />
        </mxCell>
        <mxCell id="vvGAsTG8AbVY1-xq1H39-10" value="" style="edgeStyle=orthogonalEdgeStyle;rounded=0;orthogonalLoop=1;jettySize=auto;html=1;" edge="1" parent="1" source="vvGAsTG8AbVY1-xq1H39-9" target="vvGAsTG8AbVY1-xq1H39-7">
          <mxGeometry relative="1" as="geometry" />
        </mxCell>
        <mxCell id="vvGAsTG8AbVY1-xq1H39-9" value="&lt;font style=&quot;vertical-align: inherit;&quot;&gt;&lt;font style=&quot;vertical-align: inherit; color: rgb(102, 102, 255);&quot;&gt;Automação e Análise de Vendas&lt;/font&gt;&lt;/font&gt;" style="image;html=1;image=img/lib/clip_art/computers/Software_128x128.png" vertex="1" parent="1">
          <mxGeometry x="400" width="120" height="120" as="geometry" />
        </mxCell>
        <mxCell id="vvGAsTG8AbVY1-xq1H39-12" value="Módulos de Ingestão" style="image;aspect=fixed;perimeter=ellipsePerimeter;html=1;align=center;shadow=0;dashed=0;fontColor=#4277BB;labelBackgroundColor=default;fontSize=12;spacingTop=3;image=img/lib/ibm/data/model.svg;" vertex="1" parent="1">
          <mxGeometry x="280" y="200" width="80" height="80" as="geometry" />
        </mxCell>
        <mxCell id="vvGAsTG8AbVY1-xq1H39-22" style="edgeStyle=orthogonalEdgeStyle;rounded=0;orthogonalLoop=1;jettySize=auto;html=1;exitX=0.005;exitY=0.63;exitDx=0;exitDy=0;exitPerimeter=0;" edge="1" parent="1" source="vvGAsTG8AbVY1-xq1H39-14" target="vvGAsTG8AbVY1-xq1H39-16">
          <mxGeometry relative="1" as="geometry" />
        </mxCell>
        <mxCell id="vvGAsTG8AbVY1-xq1H39-14" value="&lt;font style=&quot;color: rgb(102, 102, 255);&quot;&gt;Pré-processamento&lt;/font&gt;" style="aspect=fixed;sketch=0;html=1;dashed=0;whitespace=wrap;verticalLabelPosition=bottom;verticalAlign=top;fillColor=#2875E2;strokeColor=#ffffff;points=[[0.005,0.63,0],[0.1,0.2,0],[0.9,0.2,0],[0.5,0,0],[0.995,0.63,0],[0.72,0.99,0],[0.5,1,0],[0.28,0.99,0]];shape=mxgraph.kubernetes.icon2;prIcon=api" vertex="1" parent="1">
          <mxGeometry x="120" y="200" width="80" height="76.79" as="geometry" />
        </mxCell>
        <mxCell id="vvGAsTG8AbVY1-xq1H39-15" style="edgeStyle=orthogonalEdgeStyle;rounded=0;orthogonalLoop=1;jettySize=auto;html=1;entryX=0.988;entryY=0.521;entryDx=0;entryDy=0;entryPerimeter=0;" edge="1" parent="1" source="vvGAsTG8AbVY1-xq1H39-12" target="vvGAsTG8AbVY1-xq1H39-14">
          <mxGeometry relative="1" as="geometry" />
        </mxCell>
        <mxCell id="vvGAsTG8AbVY1-xq1H39-16" value="&lt;font style=&quot;color: rgb(102, 102, 255);&quot;&gt;LLM (Análise/Recomendação)&lt;/font&gt;" style="sketch=0;outlineConnect=0;fontColor=#232F3E;gradientColor=none;fillColor=#01A88D;strokeColor=none;dashed=0;verticalLabelPosition=bottom;verticalAlign=top;align=center;html=1;fontSize=12;fontStyle=0;aspect=fixed;pointerEvents=1;shape=mxgraph.aws4.sagemaker_model;" vertex="1" parent="1">
          <mxGeometry x="120" y="360" width="78" height="78" as="geometry" />
        </mxCell>
        <mxCell id="vvGAsTG8AbVY1-xq1H39-23" value="&lt;font style=&quot;color: rgb(102, 102, 255);&quot;&gt;API Hotmart/Redes Sociais&lt;/font&gt;" style="image;aspect=fixed;html=1;points=[];align=center;fontSize=12;image=img/lib/azure2/web/API_Center.svg;" vertex="1" parent="1">
          <mxGeometry x="280" y="359" width="80" height="80" as="geometry" />
        </mxCell>
        <mxCell id="vvGAsTG8AbVY1-xq1H39-24" style="edgeStyle=orthogonalEdgeStyle;rounded=0;orthogonalLoop=1;jettySize=auto;html=1;entryX=0.044;entryY=0.5;entryDx=0;entryDy=0;entryPerimeter=0;" edge="1" parent="1" source="vvGAsTG8AbVY1-xq1H39-16" target="vvGAsTG8AbVY1-xq1H39-23">
          <mxGeometry relative="1" as="geometry" />
        </mxCell>
        <mxCell id="vvGAsTG8AbVY1-xq1H39-28" style="edgeStyle=orthogonalEdgeStyle;rounded=0;orthogonalLoop=1;jettySize=auto;html=1;entryX=0;entryY=0.5;entryDx=0;entryDy=0;" edge="1" parent="1" source="vvGAsTG8AbVY1-xq1H39-25" target="vvGAsTG8AbVY1-xq1H39-27">
          <mxGeometry relative="1" as="geometry">
            <mxPoint x="580" y="399.5" as="targetPoint" />
          </mxGeometry>
        </mxCell>
        <mxCell id="vvGAsTG8AbVY1-xq1H39-25" value="&lt;font style=&quot;color: rgb(102, 102, 255);&quot;&gt;Módulos ETL&lt;/font&gt;" style="sketch=0;html=1;aspect=fixed;strokeColor=none;shadow=0;align=center;fillColor=#2D9C5E;verticalAlign=top;labelPosition=center;verticalLabelPosition=bottom;shape=mxgraph.gcp2.external_data_center" vertex="1" parent="1">
          <mxGeometry x="440" y="359" width="62.37" height="81" as="geometry" />
        </mxCell>
        <mxCell id="vvGAsTG8AbVY1-xq1H39-26" style="edgeStyle=orthogonalEdgeStyle;rounded=0;orthogonalLoop=1;jettySize=auto;html=1;entryX=0.048;entryY=0.494;entryDx=0;entryDy=0;entryPerimeter=0;" edge="1" parent="1" source="vvGAsTG8AbVY1-xq1H39-23" target="vvGAsTG8AbVY1-xq1H39-25">
          <mxGeometry relative="1" as="geometry" />
        </mxCell>
        <mxCell id="vvGAsTG8AbVY1-xq1H39-34" style="edgeStyle=orthogonalEdgeStyle;rounded=0;orthogonalLoop=1;jettySize=auto;html=1;exitX=1;exitY=0.5;exitDx=0;exitDy=0;" edge="1" parent="1" source="vvGAsTG8AbVY1-xq1H39-27" target="vvGAsTG8AbVY1-xq1H39-29">
          <mxGeometry relative="1" as="geometry">
            <mxPoint x="720" y="600" as="targetPoint" />
            <Array as="points">
              <mxPoint x="721" y="411" />
              <mxPoint x="721" y="599" />
            </Array>
          </mxGeometry>
        </mxCell>
        <mxCell id="vvGAsTG8AbVY1-xq1H39-27" value="&lt;font style=&quot;color: rgb(102, 102, 255);&quot;&gt;Banco de Dados Relacional&lt;/font&gt;" style="image;aspect=fixed;perimeter=ellipsePerimeter;html=1;align=center;shadow=0;dashed=0;spacingTop=3;image=img/lib/active_directory/sql_server.svg;" vertex="1" parent="1">
          <mxGeometry x="600" y="359" width="80" height="103.9" as="geometry" />
        </mxCell>
        <mxCell id="vvGAsTG8AbVY1-xq1H39-29" value="&lt;font style=&quot;color: rgb(102, 102, 255);&quot;&gt;Consultas SQL&lt;/font&gt;" style="sketch=0;points=[[0,0,0],[0.25,0,0],[0.5,0,0],[0.75,0,0],[1,0,0],[0,1,0],[0.25,1,0],[0.5,1,0],[0.75,1,0],[1,1,0],[0,0.25,0],[0,0.5,0],[0,0.75,0],[1,0.25,0],[1,0.5,0],[1,0.75,0]];outlineConnect=0;fontColor=#232F3E;fillColor=#8C4FFF;strokeColor=#ffffff;dashed=0;verticalLabelPosition=bottom;verticalAlign=top;align=center;html=1;fontSize=12;fontStyle=0;aspect=fixed;shape=mxgraph.aws4.resourceIcon;resIcon=mxgraph.aws4.sql_workbench;" vertex="1" parent="1">
          <mxGeometry x="600" y="560" width="78" height="78" as="geometry" />
        </mxCell>
        <mxCell id="vvGAsTG8AbVY1-xq1H39-35" value="&lt;font style=&quot;color: rgb(102, 102, 255);&quot;&gt;Automação/Relatórios&lt;/font&gt;" style="sketch=0;pointerEvents=1;shadow=0;dashed=0;html=1;strokeColor=none;fillColor=#505050;labelPosition=center;verticalLabelPosition=bottom;verticalAlign=top;outlineConnect=0;align=center;shape=mxgraph.office.services.call_admission_control_service;" vertex="1" parent="1">
          <mxGeometry x="445" y="560" width="70" height="80" as="geometry" />
        </mxCell>
        <mxCell id="vvGAsTG8AbVY1-xq1H39-36" style="edgeStyle=orthogonalEdgeStyle;rounded=0;orthogonalLoop=1;jettySize=auto;html=1;exitX=0;exitY=0.5;exitDx=0;exitDy=0;exitPerimeter=0;entryX=0.986;entryY=0.488;entryDx=0;entryDy=0;entryPerimeter=0;" edge="1" parent="1" source="vvGAsTG8AbVY1-xq1H39-29" target="vvGAsTG8AbVY1-xq1H39-35">
          <mxGeometry relative="1" as="geometry" />
        </mxCell>
      </root>
    </mxGraphModel>
  </diagram>
</mxfile>
